<svg preserveAspectRatio="none" width="100%" height="100%" overflow="visible" style="display: block;" viewBox="0 0 2.91611 9.0153" fill="none" xmlns="http://www.w3.org/2000/svg">
<path id="&#231;&#153;&#190;&#229;&#186;&#166;AI" fill-rule="evenodd" clip-rule="evenodd" d="M2.91611 7.55724V1.45805C2.91611 1.18124 2.91606 0.977411 2.90213 0.816698C2.88826 0.656742 2.86099 0.545049 2.80973 0.451325C2.73011 0.305716 2.61039 0.186 2.46479 0.106377C2.37106 0.0551246 2.25937 0.0278486 2.09941 0.0139828C1.9387 5.1422e-05 1.73487 0 1.45806 0C1.18124 0 0.977414 5.1422e-05 0.8167 0.0139828C0.656744 0.0278486 0.545051 0.0551246 0.451326 0.106377C0.305718 0.186 0.186005 0.305717 0.106381 0.451325C0.0551299 0.545049 0.0278549 0.656742 0.0139885 0.816698C5.77113e-05 0.977411 0 1.18124 0 1.45806V7.55724C0 7.83406 5.77113e-05 8.03788 0.0139885 8.1986C0.0278549 8.35856 0.0551288 8.47025 0.106381 8.56397C0.186005 8.70958 0.305718 8.8293 0.451326 8.90892C0.545051 8.96017 0.656744 8.98745 0.8167 9.00131C0.977414 9.01524 1.18124 9.0153 1.45806 9.0153C1.73487 9.0153 1.9387 9.01524 2.09941 9.00131C2.25937 8.98745 2.37106 8.96017 2.46479 8.90892C2.61039 8.8293 2.73011 8.70958 2.80973 8.56397C2.86099 8.47025 2.88826 8.35856 2.90213 8.1986C2.91606 8.03788 2.91611 7.83405 2.91611 7.55724Z" fill="var(--fill-0, #0160F1)"/>
</svg>
