<svg preserveAspectRatio="none" width="100%" height="100%" overflow="visible" style="display: block;" viewBox="0 0 14.4734 13.7698" fill="none" xmlns="http://www.w3.org/2000/svg">
<path id="&#231;&#153;&#190;&#229;&#186;&#166;AI" fill-rule="evenodd" clip-rule="evenodd" d="M14.4578 13.4422L9.78488 0.942323C9.57302 0.375619 9.03159 0 8.42658 0H6.61408C6.04435 0 5.52742 0.333609 5.29273 0.852746L0.0897003 12.3617C-0.208738 13.0218 0.274006 13.7698 0.998467 13.7698H6.60156C6.86878 13.7698 7.10594 13.5986 7.19005 13.345L7.73217 11.7101C7.83285 11.4065 7.6068 11.0933 7.28695 11.0933H4.53931C4.27668 11.0933 4.10192 10.8219 4.21067 10.5828L7.36543 3.64777C7.44329 3.47662 7.68952 3.48606 7.75404 3.66266L11.28 13.313C11.3803 13.5874 11.6412 13.7698 11.9333 13.7698H14.2305C14.3999 13.7698 14.5171 13.6008 14.4578 13.4422Z" fill="url(#paint0_linear_0_192)"/>
<defs>
<linearGradient id="paint0_linear_0_192" x1="-3.7229" y1="7.20666" x2="17.2771" y2="12.7067" gradientUnits="userSpaceOnUse">
<stop stop-color="#0160F1"/>
<stop offset="1" stop-color="#000311"/>
</linearGradient>
</defs>
</svg>
