<svg preserveAspectRatio="none" width="100%" height="100%" overflow="visible" style="display: block;" viewBox="0 0 18.7676 10.667" fill="none" xmlns="http://www.w3.org/2000/svg">
<path id="Cellular Connection" d="M2.20801 6.66699C2.81765 6.66708 3.31152 7.11476 3.31152 7.66699V9.66699C3.31133 10.2191 2.81753 10.6669 2.20801 10.667H1.10352C0.494057 10.6668 0.000194273 10.219 0 9.66699V7.66699C0 7.1148 0.493937 6.66715 1.10352 6.66699H2.20801ZM7.35938 4.66699C7.9691 4.66699 8.46387 5.11471 8.46387 5.66699V9.66699C8.46367 10.2191 7.96898 10.667 7.35938 10.667H6.25586C5.64626 10.667 5.15156 10.2191 5.15137 9.66699V5.66699C5.15137 5.11471 5.64614 4.66699 6.25586 4.66699H7.35938ZM12.5117 2.33301C13.1213 2.33301 13.616 2.78087 13.6162 3.33301V9.66699C13.616 10.2191 13.1213 10.667 12.5117 10.667H11.4082C10.7986 10.667 10.3039 10.2191 10.3037 9.66699V3.33301C10.3039 2.78087 10.7986 2.33301 11.4082 2.33301H12.5117ZM17.6641 0C18.2737 0.000114945 18.7676 0.447786 18.7676 1V9.66699C18.7674 10.2191 18.2736 10.6669 17.6641 10.667H16.5596C15.9501 10.6669 15.4562 10.219 15.4561 9.66699V1C15.4561 0.447793 15.95 0.00012597 16.5596 0H17.6641Z" fill="var(--fill-0, #060606)"/>
</svg>
