<svg preserveAspectRatio="none" width="100%" height="100%" overflow="visible" style="display: block;" viewBox="0 0 390 388" fill="none" xmlns="http://www.w3.org/2000/svg">
<g id="Rectangle 279335223">
<path d="M21 0.5H323.346C328.466 0.500074 333.401 2.41654 337.18 5.87207L382.835 47.625C387.081 51.5086 389.5 56.9985 389.5 62.7529V367C389.5 378.322 380.322 387.5 369 387.5H21C9.67817 387.5 0.5 378.322 0.5 367V21C0.5 9.85513 9.39349 0.787579 20.4707 0.506836L21 0.5Z" fill="var(--fill-0, white)"/>
<path d="M21 0.5H323.346C328.466 0.500074 333.401 2.41654 337.18 5.87207L382.835 47.625C387.081 51.5086 389.5 56.9985 389.5 62.7529V367C389.5 378.322 380.322 387.5 369 387.5H21C9.67817 387.5 0.5 378.322 0.5 367V21C0.5 9.85513 9.39349 0.787579 20.4707 0.506836L21 0.5Z" fill="url(#paint0_linear_0_133)"/>
<path d="M21 0.5H323.346C328.466 0.500074 333.401 2.41654 337.18 5.87207L382.835 47.625C387.081 51.5086 389.5 56.9985 389.5 62.7529V367C389.5 378.322 380.322 387.5 369 387.5H21C9.67817 387.5 0.5 378.322 0.5 367V21C0.5 9.85513 9.39349 0.787579 20.4707 0.506836L21 0.5Z" stroke="var(--stroke-0, white)"/>
</g>
<defs>
<linearGradient id="paint0_linear_0_133" x1="195" y1="22" x2="195" y2="194" gradientUnits="userSpaceOnUse">
<stop stop-color="#E2F2FF"/>
<stop offset="1" stop-color="white"/>
</linearGradient>
</defs>
</svg>
