<svg preserveAspectRatio="none" width="100%" height="100%" overflow="visible" style="display: block;" viewBox="0 0 13 13" fill="none" xmlns="http://www.w3.org/2000/svg">
<g id="Frame">
<path id="Vector" d="M7.10132 9.95799L9.83782 11.141C10.0068 11.2125 10.1953 11.1085 10.2213 10.9265L11.6643 1.31299C11.6968 1.08549 11.4498 0.916492 11.2548 1.03349L1.13432 6.98749C0.94582 7.09799 0.958821 7.37749 1.15382 7.47499L3.42232 8.54099C3.52632 8.58649 3.64332 8.57349 3.72782 8.49549L10.6048 2.24249L5.03432 9.19749C4.99532 9.24299 4.97582 9.30149 4.97582 9.35999L4.92382 11.479C4.91732 11.739 5.24232 11.8625 5.41132 11.661L6.79582 10.036C6.86082 9.94499 6.99082 9.91249 7.10132 9.95799Z" fill="var(--fill-0, white)"/>
</g>
</svg>
