<svg preserveAspectRatio="none" width="100%" height="100%" overflow="visible" style="display: block;" viewBox="0 0 13 13" fill="none" xmlns="http://www.w3.org/2000/svg">
<g id="Frame">
<path id="Vector" d="M11.3451 1.53416C11.1029 1.53416 10.9414 1.69565 10.9414 1.93789V11.3043C10.9414 11.7081 10.5377 12.1118 10.1339 12.1118H3.02835C2.54388 12.1118 1.97866 11.7081 1.97866 11.3043V10.4161C1.97866 10.0124 2.46313 9.77019 2.94761 9.77019H9.73021C9.97245 9.77019 10.1339 9.6087 10.1339 9.36646V1.45342C10.1339 0.565217 9.48798 0 8.51903 0H3.02835C2.14015 0 1.25195 0.484472 1.25195 1.45342V11.3851C1.25195 11.3851 1.25195 11.3851 1.25195 11.4658C1.25195 11.5466 1.25195 11.5466 1.25195 11.6273C1.3327 12.354 2.05941 12.9193 2.78611 13H2.86686C2.86686 13 2.86686 13 2.94761 13H10.1339C11.0221 13 11.7488 12.2733 11.7488 11.4658V1.93789C11.7488 1.7764 11.5874 1.53416 11.3451 1.53416ZM9.81096 10.5776H3.18984C2.94761 10.5776 2.78611 10.7391 2.78611 10.9814C2.78611 11.2236 2.94761 11.3851 3.18984 11.3851H9.81096C10.0532 11.3851 10.2147 11.2236 10.2147 10.9814C10.2147 10.7391 10.0532 10.5776 9.81096 10.5776Z" fill="var(--fill-0, white)"/>
</g>
</svg>
