<svg preserveAspectRatio="none" width="100%" height="100%" overflow="visible" style="display: block;" viewBox="0 0 7 7" fill="none" xmlns="http://www.w3.org/2000/svg">
<path id="&#231;&#153;&#190;&#229;&#186;&#166;AI" opacity="0.5" fill-rule="evenodd" clip-rule="evenodd" d="M3.62577 6.95403C3.60254 6.97096 3.55444 7.00079 3.48889 6.99998C3.42435 6.99919 3.37772 6.96892 3.35558 6.95219C3.33046 6.9332 3.31007 6.91103 3.29459 6.8922C3.26325 6.85409 3.23251 6.80553 3.20342 6.75458C3.14434 6.65105 3.07674 6.51018 3.00661 6.35346C2.86607 6.03943 2.7064 5.64146 2.57091 5.30379L2.57004 5.3016C2.46356 5.03622 2.37467 4.81503 2.31931 4.69222C2.18939 4.63393 1.94907 4.53878 1.66343 4.42587L1.66136 4.42505C1.3257 4.29237 0.938041 4.13913 0.633258 4.00559C0.481154 3.93894 0.344925 3.87515 0.244675 3.81978C0.195324 3.79252 0.148391 3.76389 0.111352 3.73493C0.0930877 3.72064 0.0714411 3.70184 0.052526 3.67866C0.0365658 3.65911 0.00406037 3.6144 0.000356073 3.55026C-0.00345533 3.48426 0.0242014 3.43424 0.0417122 3.40841C0.0607819 3.38028 0.0838585 3.35734 0.10372 3.33983C0.143841 3.30446 0.19568 3.26979 0.250244 3.23705C0.361114 3.17053 0.512579 3.09474 0.680218 3.01672C1.01619 2.86035 1.43878 2.6851 1.78295 2.54236L1.78514 2.54145C2.01758 2.44506 2.20861 2.36574 2.3193 2.31526C2.37151 2.20024 2.45425 1.99842 2.55437 1.75387L2.55527 1.75167C2.69535 1.40951 2.86474 0.995744 3.01522 0.667738C3.09031 0.504069 3.16308 0.356442 3.22694 0.248233C3.25836 0.194982 3.29165 0.144292 3.32567 0.104861C3.34251 0.0853495 3.36461 0.0625672 3.39178 0.043517C3.41647 0.0262056 3.46536 -0.00219875 3.53082 0.000135306C3.59551 0.00244233 3.64134 0.0342121 3.662 0.0504846C3.68612 0.0694842 3.70577 0.0914605 3.72077 0.110133C3.75116 0.147975 3.78125 0.196157 3.80994 0.246943C3.86822 0.350089 3.93531 0.490379 4.00522 0.646668C4.1453 0.959828 4.30523 1.35668 4.44142 1.6946L4.44227 1.6967C4.55081 1.96604 4.64163 2.19106 4.69778 2.31528C4.81111 2.3669 5.00796 2.44826 5.24647 2.54671L5.24865 2.54761C5.58923 2.6882 6.00289 2.85896 6.33125 3.01068C6.49511 3.0864 6.64298 3.15976 6.7514 3.22402C6.80477 3.25566 6.8555 3.2891 6.89494 3.32316C6.91445 3.34002 6.93719 3.36208 6.95621 3.38913C6.97343 3.41361 7.00198 3.46236 6.99989 3.52776C6.99783 3.59221 6.96652 3.63808 6.95017 3.65905C6.93122 3.68336 6.90925 3.70315 6.89059 3.71825C6.85277 3.74883 6.80464 3.77904 6.75398 3.80779C6.65107 3.86618 6.51113 3.93329 6.35533 4.00314C6.04314 4.14311 5.64762 4.3027 5.31129 4.4384L5.30918 4.43925C5.04309 4.54662 4.82085 4.63642 4.69754 4.69218C4.64525 4.80679 4.56241 5.00679 4.46233 5.24867L4.46144 5.25083C4.32045 5.5916 4.14982 6.00401 3.99879 6.33137C3.92342 6.49475 3.85062 6.64202 3.78714 6.75009C3.75589 6.8033 3.72304 6.8537 3.68981 6.89295C3.67339 6.91234 3.65197 6.93494 3.62577 6.95403Z" fill="var(--fill-0, white)"/>
</svg>
