<svg preserveAspectRatio="none" width="100%" height="100%" overflow="visible" style="display: block;" viewBox="0 0 12 12" fill="none" xmlns="http://www.w3.org/2000/svg">
<path id="&#231;&#153;&#190;&#229;&#186;&#166;AI" opacity="0.7" fill-rule="evenodd" clip-rule="evenodd" d="M6.21561 11.9212C6.17578 11.9502 6.09333 12.0014 5.98096 12C5.87031 11.9986 5.79037 11.9467 5.75242 11.918C5.70936 11.8855 5.67441 11.8475 5.64787 11.8152C5.59414 11.7499 5.54144 11.6666 5.49158 11.5793C5.39029 11.4018 5.27442 11.1603 5.15419 10.8917C4.91327 10.3533 4.63954 9.67108 4.40728 9.09221L4.40578 9.08846C4.22324 8.63351 4.07087 8.25434 3.97596 8.04381C3.75324 7.94389 3.34127 7.78076 2.85159 7.5872L2.84804 7.5858C2.27263 7.35834 1.60807 7.09565 1.08559 6.86672C0.824836 6.75247 0.5913 6.64312 0.419442 6.54819C0.33484 6.50147 0.254385 6.45239 0.190889 6.40273C0.159579 6.37824 0.12247 6.34601 0.0900446 6.30628C0.0626843 6.27276 0.00696063 6.19611 0.000610411 6.08615C-0.00592342 5.97302 0.0414881 5.88727 0.0715066 5.84299C0.104198 5.79477 0.143757 5.75544 0.177805 5.72543C0.246585 5.66478 0.335452 5.60535 0.42899 5.54923C0.619053 5.43519 0.878707 5.30527 1.16609 5.17152C1.74203 4.90346 2.46648 4.60302 3.05649 4.35833L3.06024 4.35678C3.45871 4.19153 3.78619 4.05555 3.97594 3.96902C4.06545 3.77185 4.20729 3.42586 4.37892 3.00664L4.38046 3.00287C4.62059 2.4163 4.91098 1.70699 5.16895 1.14469C5.29767 0.864119 5.42243 0.611044 5.53189 0.425543C5.58576 0.334254 5.64284 0.247358 5.70115 0.179762C5.73001 0.146313 5.7679 0.107258 5.81448 0.0746006C5.85681 0.0449239 5.94062 -0.00376928 6.05283 0.000231953C6.16373 0.00418685 6.2423 0.0586492 6.27771 0.086545C6.31906 0.119116 6.35275 0.156789 6.37846 0.188799C6.43056 0.253671 6.48215 0.33627 6.53133 0.423332C6.63123 0.600153 6.74625 0.84065 6.8661 1.10857C7.10623 1.64542 7.3804 2.32573 7.61387 2.90503L7.61532 2.90863C7.80139 3.37035 7.95709 3.7561 8.05334 3.96906C8.24761 4.05754 8.58507 4.19702 8.99394 4.3658L8.99768 4.36734C9.58153 4.60835 10.2907 4.90107 10.8536 5.16117C11.1345 5.29097 11.388 5.41672 11.5738 5.5269C11.6653 5.58113 11.7523 5.63846 11.8199 5.69685C11.8533 5.72574 11.8923 5.76356 11.9249 5.80993C11.9544 5.85189 12.0034 5.93548 11.9998 6.04759C11.9963 6.15807 11.9426 6.23671 11.9146 6.27266C11.8821 6.31433 11.8444 6.34826 11.8124 6.37414C11.7476 6.42656 11.6651 6.47836 11.5782 6.52764C11.4018 6.62773 11.1619 6.74279 10.8949 6.86253C10.3597 7.10247 9.68163 7.37605 9.10507 7.60869L9.10145 7.61015C8.6453 7.7942 8.26432 7.94815 8.05292 8.04374C7.96329 8.24022 7.82127 8.58306 7.64971 8.99772L7.64819 9.00142C7.40649 9.5856 7.11398 10.2926 6.85507 10.8538C6.72586 11.1338 6.60106 11.3863 6.49225 11.5716C6.43867 11.6628 6.38235 11.7492 6.32539 11.8165C6.29724 11.8497 6.26051 11.8885 6.21561 11.9212Z" fill="var(--fill-0, white)"/>
</svg>
