<svg preserveAspectRatio="none" width="100%" height="100%" overflow="visible" style="display: block;" viewBox="0 0 17 17" fill="none" xmlns="http://www.w3.org/2000/svg">
<g id="Group 2">
<path id="Combined Shape" d="M8.5 0C13.1944 0 17 3.80558 17 8.5C17 13.1944 13.1944 17 8.5 17C3.80558 17 0 13.1944 0 8.5C0 3.80558 3.80558 0 8.5 0ZM8.5 2C4.91015 2 2 4.91015 2 8.5C2 12.0899 4.91015 15 8.5 15C12.0899 15 15 12.0899 15 8.5C15 4.91015 12.0899 2 8.5 2ZM8.5 5.5C10.1566 5.5 11.5 6.8428 11.5 8.5C11.5 10.1566 10.1566 11.5 8.5 11.5C6.8434 11.5 5.5 10.1566 5.5 8.5C5.5 6.8428 6.8434 5.5 8.5 5.5Z" fill="var(--fill-0, #060606)"/>
</g>
</svg>
