<svg preserveAspectRatio="none" width="100%" height="100%" overflow="visible" style="display: block;" viewBox="0 0 18.5 6.5" fill="none" xmlns="http://www.w3.org/2000/svg">
<path id="Fill 43" d="M9.25 0C11.0449 0 12.5 1.45507 12.5 3.25C12.5 5.04493 11.0449 6.5 9.25 6.5C7.45507 6.5 6 5.04493 6 3.25C6 1.45507 7.45507 0 9.25 0ZM2 1.5C3.1044 1.5 4 2.3952 4 3.5C4 4.6044 3.1044 5.5 2 5.5C0.8956 5.5 0 4.6044 0 3.5C0 2.3952 0.8956 1.5 2 1.5ZM16.5 1.5C17.6044 1.5 18.5 2.3952 18.5 3.5C18.5 4.6044 17.6044 5.5 16.5 5.5C15.3956 5.5 14.5 4.6044 14.5 3.5C14.5 2.3952 15.3956 1.5 16.5 1.5Z" fill="var(--fill-0, #060606)"/>
</svg>
