<svg preserveAspectRatio="none" width="100%" height="100%" overflow="visible" style="display: block;" viewBox="0 0 390 154" fill="none" xmlns="http://www.w3.org/2000/svg">
<foreignObject x="-4" y="-4" width="398" height="162"><div xmlns="http://www.w3.org/1999/xhtml" style="backdrop-filter:blur(2px);clip-path:url(#bgblur_0_0_274_clip_path);height:100%;width:100%"></div></foreignObject><path id="&#231;&#159;&#169;&#229;&#189;&#162;&#229;&#164;&#135;&#228;&#187;&#189; 9" data-figma-bg-blur-radius="4" d="M21 0.5H375C383.008 0.500006 389.5 6.99188 389.5 15V133C389.5 144.322 380.322 153.5 369 153.5H21C9.67817 153.5 0.5 144.322 0.5 133V21C0.5 9.85513 9.39349 0.787578 20.4707 0.506836L21 0.5Z" fill="var(--fill-0, white)" fill-opacity="0.6" stroke="var(--stroke-0, white)"/>
<defs>
<clipPath id="bgblur_0_0_274_clip_path" transform="translate(4 4)"><path d="M21 0.5H375C383.008 0.500006 389.5 6.99188 389.5 15V133C389.5 144.322 380.322 153.5 369 153.5H21C9.67817 153.5 0.5 144.322 0.5 133V21C0.5 9.85513 9.39349 0.787578 20.4707 0.506836L21 0.5Z"/>
</clipPath></defs>
</svg>
