<svg preserveAspectRatio="none" width="100%" height="100%" overflow="visible" style="display: block;" viewBox="0 0 10 10" fill="none" xmlns="http://www.w3.org/2000/svg">
<g id="Frame">
<path id="Vector" d="M5.16741 0.07262L8.55816 3.95812C8.58506 3.98883 8.60253 4.02664 8.6085 4.06702C8.61446 4.10741 8.60866 4.14866 8.59178 4.18583C8.57491 4.223 8.54768 4.25452 8.51336 4.27662C8.47904 4.29872 8.43907 4.31046 8.39825 4.31043H6.73161C6.68039 4.30999 6.63078 4.3283 6.59212 4.36189C6.55346 4.39549 6.52842 4.44206 6.52171 4.49284C6.39678 5.39737 5.64217 9.39781 2.06901 9.99C2.02234 9.99901 1.974 9.99211 1.93172 9.97039C1.88944 9.94868 1.85567 9.9134 1.8358 9.87022C1.81594 9.82704 1.81113 9.77845 1.82216 9.73221C1.83318 9.68598 1.85939 9.64477 1.8966 9.6152C2.50878 9.13545 3.30837 8.20593 3.53326 6.55178C3.61959 5.87979 3.66133 5.20283 3.65819 4.52532C3.65821 4.46852 3.63599 4.41397 3.5963 4.37335C3.5566 4.33272 3.50259 4.30924 3.4458 4.30794H1.61425C1.57342 4.30796 1.53346 4.29622 1.49913 4.27412C1.46481 4.25202 1.43758 4.2205 1.42071 4.18333C1.40384 4.14616 1.39803 4.10491 1.404 4.06452C1.40996 4.02414 1.42743 3.98633 1.45433 3.95562L4.84758 0.07262C4.86751 0.0498115 4.8921 0.0315312 4.91968 0.0190062C4.94726 0.00648115 4.9772 1.16784e-06 5.0075 1.16784e-06C5.03779 1.16784e-06 5.06773 0.00648115 5.09531 0.0190062C5.12289 0.0315312 5.14748 0.0498115 5.16741 0.07262Z" fill="var(--fill-0, #E64646)"/>
</g>
</svg>
