<svg preserveAspectRatio="none" width="100%" height="100%" overflow="visible" style="display: block;" viewBox="0 0 10 10" fill="none" xmlns="http://www.w3.org/2000/svg">
<g id="Frame">
<path id="Vector" d="M5.16741 9.92124L8.55816 6.03574C8.58506 6.00503 8.60253 5.96722 8.6085 5.92683C8.61446 5.88645 8.60866 5.8452 8.59178 5.80803C8.57491 5.77085 8.54768 5.73933 8.51336 5.71723C8.47904 5.69513 8.43907 5.68339 8.39825 5.68342H6.73161C6.68039 5.68386 6.63078 5.66556 6.59212 5.63196C6.55346 5.59837 6.52842 5.55179 6.52171 5.50102C6.39678 4.59648 5.64217 0.596045 2.06901 0.00385082C2.02234 -0.00515774 1.974 0.0017483 1.93172 0.0234643C1.88944 0.0451803 1.85567 0.0804509 1.8358 0.123632C1.81594 0.166814 1.81113 0.21541 1.82216 0.261645C1.83318 0.30788 1.85939 0.349082 1.8966 0.378657C2.50878 0.85841 3.30837 1.78793 3.53326 3.44208C3.61959 4.11406 3.66133 4.79103 3.65819 5.46853C3.65821 5.52533 3.63599 5.57988 3.5963 5.62051C3.5566 5.66114 3.50259 5.68461 3.4458 5.68592H1.61425C1.57342 5.68589 1.53346 5.69763 1.49913 5.71973C1.46481 5.74183 1.43758 5.77335 1.42071 5.81053C1.40384 5.8477 1.39803 5.88895 1.404 5.92933C1.40996 5.96972 1.42743 6.00753 1.45433 6.03824L4.84758 9.92124C4.86751 9.94404 4.8921 9.96232 4.91968 9.97485C4.94726 9.98737 4.9772 9.99385 5.0075 9.99385C5.03779 9.99385 5.06773 9.98737 5.09531 9.97485C5.12289 9.96232 5.14748 9.94404 5.16741 9.92124Z" fill="var(--fill-0, #00C8C8)"/>
</g>
</svg>
