<svg preserveAspectRatio="none" width="100%" height="100%" overflow="visible" style="display: block;" viewBox="0 0 8.92683 10" fill="none" xmlns="http://www.w3.org/2000/svg">
<path id="Vector" d="M0.0001646 1.04978V3.01303C-0.0029955 3.14355 0.0394335 3.27102 0.11997 3.37294C0.200507 3.47486 0.313978 3.54471 0.440377 3.57015C0.479133 3.57756 0.519351 3.58126 0.558108 3.58052H2.20122C2.34668 3.58052 2.48618 3.52198 2.58903 3.41778C2.69188 3.31358 2.74966 3.17225 2.74966 3.02489C2.74966 2.87752 2.69188 2.73619 2.58903 2.63199C2.48618 2.52779 2.34668 2.46925 2.20122 2.46925H1.56065C1.91428 2.04263 2.35606 1.6999 2.85479 1.46525C3.35351 1.2306 3.89701 1.10976 4.44689 1.11127C5.16202 1.11116 5.86297 1.31341 6.47073 1.69523C7.07849 2.07706 7.5689 2.62328 7.88669 3.27233C7.95137 3.40437 8.06517 3.50497 8.20306 3.552C8.34095 3.59903 8.49163 3.58864 8.62196 3.52311C8.75228 3.45758 8.85158 3.34228 8.898 3.20258C8.94442 3.06288 8.93416 2.91022 8.86949 2.77818C8.4608 1.94364 7.83014 1.24135 7.04859 0.750477C6.26705 0.259608 5.3657 -0.000318043 4.44616 2.92051e-07C3.13795 2.92051e-07 1.96722 0.51489 1.09704 1.35131V1.04978C1.09704 0.976816 1.08285 0.904563 1.05529 0.83715C1.02773 0.769737 0.987332 0.708484 0.936405 0.656889C0.885478 0.605293 0.825019 0.564365 0.758479 0.536442C0.69194 0.508519 0.620623 0.494147 0.548601 0.494147C0.47658 0.494147 0.405263 0.508519 0.338724 0.536442C0.272184 0.564365 0.211725 0.605293 0.160798 0.656889C0.109871 0.708484 0.0694734 0.769737 0.0419118 0.83715C0.0143503 0.904563 0.000164598 0.976816 0.0001646 1.04978ZM0.304364 6.47724C0.368888 6.44471 0.439109 6.42537 0.511012 6.42035C0.582916 6.41533 0.655092 6.42471 0.723413 6.44797C0.791734 6.47122 0.85486 6.50789 0.909183 6.55588C0.963506 6.60387 1.00796 6.66224 1.04 6.72765C1.35779 7.3767 1.8482 7.92292 2.45596 8.30475C3.06372 8.68657 3.76467 8.88882 4.4798 8.88871C5.64248 8.88871 6.66916 8.36419 7.36604 7.52999H6.72546C6.58001 7.52999 6.44051 7.47145 6.33766 7.36725C6.23481 7.26305 6.17703 7.12172 6.17703 6.97435C6.17703 6.82699 6.23481 6.68566 6.33766 6.58146C6.44051 6.47726 6.58001 6.41872 6.72546 6.41872H8.36712C8.47289 6.41625 8.57708 6.44509 8.66693 6.50169C8.74898 6.55269 8.81623 6.6248 8.86183 6.71069C8.90743 6.79658 8.92975 6.89318 8.92652 6.99065V8.9502C8.92652 9.09756 8.86874 9.23889 8.76589 9.34309C8.66304 9.44729 8.52354 9.50583 8.37809 9.50583C8.23263 9.50583 8.09313 9.44729 7.99028 9.34309C7.88743 9.23889 7.82965 9.09756 7.82965 8.9502V8.64867C6.92683 9.51948 5.72706 10.0036 4.48053 9.99998C3.56111 10.0002 2.65992 9.74017 1.87851 9.24931C1.09711 8.75845 0.466564 8.05623 0.0579333 7.2218C-0.00674873 7.08994 -0.0171266 6.93746 0.0290793 6.79786C0.0752852 6.65825 0.174296 6.54294 0.304364 6.47724Z" fill="var(--fill-0, white)"/>
</svg>
