<svg preserveAspectRatio="none" width="100%" height="100%" overflow="visible" style="display: block;" viewBox="0 0 140.487 24.7861" fill="none" xmlns="http://www.w3.org/2000/svg">
<path id="Union" d="M29.1348 16.0654C29.1348 18.8372 28.6579 20.9522 27.7041 22.4102C26.8941 23.6521 25.7056 24.4441 24.1396 24.7861V20.0342C24.9135 18.9903 25.3007 17.7036 25.3008 16.1738V0.945312H29.1348V16.0654ZM116.213 6.48047C116.213 7.48831 116.006 8.14512 115.592 8.45117C115.214 8.73917 114.395 8.88379 113.135 8.88379H109.489V5.91309H111.299C111.785 5.91308 112.108 5.85049 112.271 5.72461C112.468 5.58063 112.567 5.27454 112.567 4.80664V4.32031H107.222V24.6514H103.415V0.945312H116.213V6.48047ZM116.239 13.0684C116.059 15.5163 115.457 17.6134 114.431 19.3594C115.007 19.8093 115.691 20.2236 116.482 20.6016V24.6514C114.701 24.0754 113.207 23.2833 112.001 22.2754C110.903 23.2294 109.579 24.0214 108.031 24.6514V20.8447C108.715 20.4127 109.292 19.9892 109.76 19.5752C108.878 18.1173 108.229 16.2635 107.815 14.0137H111.137C111.371 14.9494 111.65 15.7501 111.974 16.416C112.334 15.5161 112.595 14.4002 112.757 13.0684H107.978V9.82812H116.239V13.0684ZM8.47754 0C7.61354 2.916 6.01188 4.90577 3.67188 5.96777H6.2373V11.7725H9.04492C8.72092 10.7645 8.52317 10.1609 8.45117 9.96289H12.3662C12.6002 10.4489 12.8344 11.0525 13.0684 11.7725H15.417V9.28809H7.04688V5.96777H19.4404V11.7725H21.4648V15.1748H19.4404V17.9551H20.8438V21.1953H19.4404V21.4111C19.4404 22.5091 19.2781 23.2657 18.9541 23.6797C18.5221 24.2376 17.6666 24.5166 16.3887 24.5166H12.2314V21.8701H13.8242C14.3461 21.8701 14.7063 21.8347 14.9043 21.7627C15.1382 21.6727 15.2913 21.4833 15.3633 21.1953H2.21387V15.1748H0V11.7725H2.21387V6.50781C1.65593 6.63379 1.04384 6.74107 0.37793 6.83105V3.05176C2.23193 2.52976 3.59108 1.512 4.45508 0H8.47754ZM101.228 2.8623H102.47V6.3457H101.228V10.6387C101.858 10.4767 102.272 10.3591 102.47 10.2871V14.1758C102.056 14.3018 101.642 14.4277 101.228 14.5537V21.3848C101.227 22.3565 100.958 23.1124 100.418 23.6523C99.878 24.1923 99.1214 24.4629 98.1494 24.4629H95.9893V20.8711H96.7461C97.0339 20.871 97.2319 20.8169 97.3398 20.709C97.4476 20.6009 97.502 20.403 97.502 20.1152V15.4443C96.908 15.5523 96.3137 15.6606 95.7197 15.7686V11.7188C96.6377 11.5928 97.232 11.5022 97.502 11.4482V6.3457H95.7197V2.8623H97.502V0.189453H101.228V2.8623ZM61.1035 21.3838C61.1035 22.4816 60.8786 23.256 60.4287 23.7061C59.9787 24.156 59.2044 24.3809 58.1064 24.3809H53.8135V20.9521H55.9736C56.2614 20.9521 56.4593 20.8979 56.5674 20.79C56.6752 20.682 56.7295 20.484 56.7295 20.1963V19.0166H61.1035V21.3838ZM91.9111 21.168C91.9111 22.248 91.6957 23.0316 91.2637 23.5176C90.7777 24.0575 89.9315 24.3271 88.7256 24.3271H83.5684V20.6553H86.4844C86.9164 20.6553 87.2046 20.5835 87.3486 20.4395C87.4926 20.2954 87.5645 20.0248 87.5645 19.6289V5.07617H72.5254V1.32324H91.9111V21.168ZM125.448 20.6016H134.764V17.3887H126.259V13.7432H138.787V22.5996C138.787 23.3013 138.679 23.7512 138.463 23.9492C138.247 24.1472 137.734 24.2461 136.924 24.2461H121.426V13.7432H125.448V20.6016ZM44.3896 21.3848C44.3896 22.5186 44.2002 23.2744 43.8223 23.6523C43.4442 24.0302 42.6436 24.2197 41.4199 24.2197H38.7734V21.6543C38.4495 21.8163 38.0352 21.8975 37.5312 21.8975H30.1064V13.8242H39.5566V19.9531C39.5566 20.2409 39.5295 20.4931 39.4756 20.709H39.7188C40.0604 20.709 40.2855 20.6557 40.3936 20.5479C40.5016 20.4399 40.5557 20.2234 40.5557 19.8994V4.45508H36.7754V5.40039H39.584V8.77539H36.7754V9.63965H39.7461V13.0146H29.9443V9.63965H32.9961V8.77539H30.1064V5.40039H32.9961V4.45508H29.9443V0.945312H44.3896V21.3848ZM86.6191 16.7402C82.9652 18.3962 78.285 19.8543 72.5791 21.1143V16.6592C77.4031 15.6332 82.0832 14.2199 86.6191 12.4199V16.7402ZM33.5088 18.7656H36.1543V16.9297H33.5088V18.7656ZM6.2373 17.9551H9.12598C8.98198 17.3971 8.76548 16.6954 8.47754 15.8496H12.3662C12.6181 16.4615 12.8701 17.1633 13.1221 17.9551H15.417V15.1748H6.2373V17.9551ZM63.8037 12.0146L61.1035 14.2168H56.7295V13.5537C57.3594 13.0678 57.9808 12.5546 58.5928 12.0146H52.9502V8.69434H63.8037V12.0146ZM74.5234 6.31836C77.9074 6.64236 81.2013 7.28137 84.4053 8.23535V12.501C81.2554 11.565 77.9613 10.8728 74.5234 10.4229V6.31836ZM132.577 2.16016H139.327V5.80566H132.577V8.61328H140.487V12.2588H119.347V8.61328H128.445V5.80566H125.448C126.078 4.47366 126.448 3.25816 126.556 2.16016H128.445V0.0273438H132.577V2.16016ZM67.2598 0.134766C66.6658 1.70063 66.0444 2.97042 65.3965 3.94238H68.502V10.4219H64.749V7.31738H52.0049V10.4756H48.252V3.94238H61.4551C62.157 2.82645 62.7868 1.55665 63.3447 0.134766H67.2598ZM125.935 0.621094C125.485 5.04905 123.55 7.65078 120.13 8.4248V4.48242C120.76 3.97847 121.237 3.46531 121.561 2.94336C121.921 2.34936 122.199 1.57509 122.397 0.621094H125.935ZM20.9785 4.91406H6.56055C7.47855 3.88806 8.19034 2.76306 8.69434 1.53906H20.9785V4.91406ZM53.625 0.134766C53.931 0.782709 54.2818 1.73724 54.6777 2.99707H50.5742C50.3402 2.11517 50.0155 1.16063 49.6016 0.134766H53.625ZM59.6729 0.134766C60.0328 0.926687 60.4023 1.88121 60.7803 2.99707H56.6758C56.4238 2.06118 56.0814 1.10665 55.6494 0.134766H59.6729Z" fill="url(#paint0_linear_0_281)"/>
<path id="Learning-red-dot" d="M48.42 16.57C48.42 15.6035 49.2035 14.82 50.17 14.82H51.02V18.32H50.17C49.2035 18.32 48.42 17.5365 48.42 16.57Z" fill="#E64646"/>
<path id="Learning-blue-mark" d="M51.92 18.32H64.92V14.82H51.92V18.32ZM67.6202 16.5202L65.6202 18.0202V15.0202L67.6202 16.5202Z" fill="#0160F1"/>
<defs>
<linearGradient id="paint0_linear_0_281" x1="-4.08008" y1="5.31641" x2="14.4199" y2="10.8164" gradientUnits="userSpaceOnUse">
<stop stop-color="#0160F1"/>
<stop offset="1" stop-color="#000311"/>
</linearGradient>
</defs>
</svg>
