<svg preserveAspectRatio="none" width="100%" height="100%" overflow="visible" style="display: block;" viewBox="0 0 16.9277 11.0001" fill="none" xmlns="http://www.w3.org/2000/svg">
<path id="Wifi" d="M6.01465 8.42681C7.42843 7.34459 9.49925 7.3447 10.9131 8.42681C10.9842 8.48503 11.0264 8.56757 11.0283 8.65435C11.0302 8.7409 10.992 8.82412 10.9238 8.88482L8.70997 10.9073C8.64507 10.9667 8.55619 11.0001 8.46387 11.0001C8.37174 11 8.28356 10.9666 8.21876 10.9073L6.00391 8.88482C5.93589 8.8241 5.89849 8.74081 5.9004 8.65435C5.90242 8.56765 5.94359 8.48497 6.01465 8.42681ZM3.06055 5.72955C6.10667 3.16514 10.824 3.16514 13.8701 5.72955C13.9389 5.78968 13.9785 5.8725 13.9795 5.95904C13.9804 6.04543 13.9423 6.12821 13.875 6.18951L12.5957 7.3604C12.4639 7.47981 12.2505 7.48244 12.1152 7.36626C11.1149 6.54649 9.81334 6.09177 8.46387 6.09185C7.11541 6.09243 5.81499 6.5471 4.81544 7.36626C4.68012 7.4823 4.46674 7.47981 4.33497 7.3604L3.05567 6.18951C2.98841 6.12831 2.95135 6.04535 2.95215 5.95904C2.95306 5.87255 2.99185 5.78967 3.06055 5.72955ZM0.106451 3.03912C4.77847 -1.01302 12.1493 -1.01305 16.8213 3.03912C16.8889 3.09932 16.9272 3.18178 16.9277 3.26763C16.9282 3.35342 16.891 3.43625 16.8242 3.49712L15.543 4.66705C15.411 4.78714 15.1965 4.78822 15.0625 4.66997C13.2825 3.13851 10.9199 2.28433 8.46387 2.28423C6.00777 2.2843 3.64539 3.1385 1.86524 4.66997C1.73128 4.7884 1.5167 4.78732 1.38477 4.66705L0.103522 3.49712C0.0367831 3.43622 -0.000551215 3.3534 6.15233e-06 3.26763C0.000630216 3.18178 0.0387739 3.09927 0.106451 3.03912Z" fill="var(--fill-0, #060606)"/>
</svg>
